# xmcd
#
# Track frame offsets:
#	150
#	12662
#	24342
#	34625
#	45462
#	58945
#	69905
#	82517
#	94065
#	106262
#	118482
#	131347
#	141940
#	153937
#	165460
#	178992
#	191370
#	204890
#	216930
#	227262
#
# Disc length: 3182 seconds
#
# Revision: 1
# Processed by: cddbd v1.5.2PL0 Copyright (c) Steve Scherf et al.
# Submitted via: audiograbber 1.83.01
#
DISCID=010c6c14
DTITLE=Various Artist - Western Swing, Honky tonk and Blues Highlights by Various Artist
DTITLE=s
DYEAR=1900
DGENRE=Western Swing
TTITLE0=Jim Boyd - Mule Boogie
TTITLE1=Cliffie Stone - Sugar Pie
TTITLE2=Bill Boyd - You're Laughing Up Your Sleeve
TTITLE3=Jerry Irby - Great Long Pistol
TTITLE4=Denver Darling - Deep Delta Blues
TTITLE5=Adolph Hofner - It's Best to Behave
TTITLE6=Jimmy Lane (Jimmie Saul) - Firecracker Stomp
TTITLE7=Johnnie Lee Wills - The Queen of San Joaquin
TTITLE8=Tommy Duncan - Tomato Can
TTITLE9=Bill Boyd - Southern Steel Guitar
TTITLE10=Charles Mitchell - Mean Mama Blues
TTITLE11=Johnny Tyler - Behind the Eight Ball
TTITLE12=Ole Rasmussen - In the Mood
TTITLE13=Prairie Ramblers - You've Got Me in the Doghouse Now
TTITLE14=Deuce Spriggins - Red Hot Mama
TTITLE15=Denver Darling - Juke Joint Mama
TTITLE16=Prairie Ramblers - The Fly in My Ointment
TTITLE17=Johnny Tyler - It Ain't Far to the Bar
TTITLE18=Jim Boyd - Truck Driver's Boogie
TTITLE19=Bob Wills - Empty Chair at the Christmas Table
EXTD=
EXTT0=
EXTT1=
EXTT2=
EXTT3=
EXTT4=
EXTT5=
EXTT6=
EXTT7=
EXTT8=
EXTT9=
EXTT10=
EXTT11=
EXTT12=
EXTT13=
EXTT14=
EXTT15=
EXTT16=
EXTT17=
EXTT18=
EXTT19=
PLAYORDER=
